# xmcd CD database file
#
# Track frame offsets:
#	150
#	21360
#	40426
#	47993
#	71393
#	86621
#	108992
#	140070
#	157512
#	178512
#
# Disc length: 2619 seconds
#
# Revision: 1
# Processed by: cddbd v1.4PL0 Copyright (c) Steve Scherf et al.
# Submitted via: CDex 1.40Beta4
#
DISCID=800a390a
DTITLE=Mean Town Blues Band - 1990-1995
DYEAR=1996
DGENRE=Blues
TTITLE0=Meantown Blues
TTITLE1=Don't Take Advantage Of Me
TTITLE2=The Loop
TTITLE3=My Soul
TTITLE4=Don't Start Me Talking
TTITLE5=Meantown Blues
TTITLE6=Muddy Waters
TTITLE7=Bad Boy
TTITLE8=Walkin' the Blues
TTITLE9=MTB Shuffle
EXTD=YEAR: 1996 ID3G:   0
EXTT0=
EXTT1=
EXTT2=
EXTT3=
EXTT4=
EXTT5=
EXTT6=
EXTT7=
EXTT8=
EXTT9=
PLAYORDER=
